<?xml version="1.0" standalone="no"?>
<!DOCTYPE svg PUBLIC "-//W3C//DTD SVG 20010904//EN"
 "http://www.w3.org/TR/2001/REC-SVG-20010904/DTD/svg10.dtd">
<svg version="1.0" xmlns="http://www.w3.org/2000/svg"
 width="500.000000pt" height="500.000000pt" viewBox="0 0 500.000000 500.000000"
 preserveAspectRatio="xMidYMid meet">
<metadata>
Created by potrace 1.16, written by Peter Selinger 2001-2019
</metadata>
<g transform="translate(0.000000,500.000000) scale(0.100000,-0.100000)"
fill="#000000" stroke="none">
<path d="M2255 4649 c-189 -23 -419 -83 -590 -154 -314 -130 -607 -348 -830
-620 -720 -874 -647 -2149 166 -2930 327 -313 729 -512 1181 -582 140 -21 468
-24 608 -4 130 18 375 81 490 126 286 113 531 273 745 489 187 187 301 347
416 581 294 600 291 1311 -8 1909 -282 564 -804 984 -1408 1132 -55 13 -140
31 -190 40 -109 19 -465 27 -580 13z m543 -49 c844 -124 1527 -745 1737 -1579
38 -149 55 -272 61 -441 48 -1195 -906 -2200 -2090 -2200 -712 0 -1353 344
-1747 938 -320 482 -431 1057 -313 1622 181 865 879 1528 1747 1660 172 26
430 26 605 0z"/>
<path d="M2407 4442 c-12 -13 -17 -37 -17 -84 0 -86 13 -98 103 -98 65 0 67
-1 67 -25 0 -24 -2 -25 -65 -25 -51 0 -65 -3 -65 -15 0 -24 131 -21 153 3 26
28 25 222 -1 245 -27 25 -153 24 -175 -1z m153 -82 l0 -60 -37 -1 c-21 0 -50
-3 -65 -5 l-28 -5 0 66 0 65 65 0 65 0 0 -60z"/>
<path d="M2185 4438 c-83 -14 -98 -35 -85 -115 17 -95 20 -103 37 -103 13 0
15 9 10 60 -4 33 -9 71 -13 84 -5 21 -1 23 62 34 38 6 70 10 72 8 1 -2 8 -37
15 -77 10 -56 17 -75 30 -77 20 -4 22 18 6 104 -10 56 -37 96 -64 92 -5 0 -37
-5 -70 -10z"/>
<path d="M2906 4395 c-16 -12 -56 -127 -56 -162 0 -7 8 -13 19 -13 14 0 21 10
25 35 8 39 13 41 81 20 51 -15 65 -13 65 10 0 8 -18 19 -42 25 -24 6 -51 13
-60 16 -22 6 -24 44 -3 44 8 0 48 -9 87 -20 56 -15 74 -17 80 -7 14 21 10 24
-74 46 -96 25 -97 25 -122 6z"/>
<path d="M1922 4376 c-35 -12 -63 -25 -63 -29 1 -4 1 -12 1 -17 0 -6 14 -9 31
-8 29 3 32 0 49 -54 l18 -57 -29 -6 c-31 -7 -34 -12 -20 -33 12 -20 153 25
149 48 -3 10 -13 14 -34 12 -28 -3 -31 0 -47 51 -21 67 -22 64 9 71 16 4 24
12 22 23 -4 24 -16 24 -86 -1z"/>
<path d="M3160 4265 c-44 -100 -39 -118 46 -156 91 -42 108 -35 150 58 19 41
32 79 29 84 -15 23 -33 4 -61 -61 -16 -38 -34 -70 -40 -70 -7 0 -37 11 -67 25
l-56 26 16 37 c8 20 24 54 34 74 19 36 19 37 0 47 -16 9 -22 2 -51 -64z"/>
<path d="M1668 4278 c-49 -23 -88 -44 -88 -47 0 -3 4 -12 9 -19 7 -12 14 -11
39 2 17 9 35 16 40 16 4 0 23 -31 42 -70 31 -64 51 -83 64 -62 2 4 -11 40 -29
80 l-34 72 39 20 c27 14 38 25 34 35 -8 21 -17 19 -116 -27z"/>
<path d="M3454 4188 c-4 -7 1 -17 12 -24 58 -39 57 -33 9 -108 -34 -52 -42
-72 -33 -78 22 -13 25 -10 63 52 20 33 40 62 46 65 5 4 24 -3 43 -14 33 -21
46 -19 46 5 0 12 -150 114 -169 114 -5 0 -13 -5 -17 -12z"/>
<path d="M1408 4129 c-73 -50 -76 -74 -16 -162 22 -34 43 -64 44 -66 2 -2 10
2 18 8 13 11 9 22 -31 82 -25 38 -44 71 -42 72 26 21 100 67 108 67 6 0 29
-28 52 -62 23 -35 44 -65 45 -67 2 -2 10 2 18 8 13 11 9 22 -30 81 -41 61 -65
81 -99 79 -5 0 -36 -18 -67 -40z"/>
<path d="M2247 4084 c-531 -82 -1002 -447 -1217 -942 -54 -125 -95 -265 -115
-398 -23 -147 -16 -435 14 -572 66 -300 203 -560 406 -771 257 -267 546 -422
899 -483 104 -17 148 -19 311 -15 203 6 302 21 458 73 559 184 978 673 1077
1259 19 113 22 154 17 310 -8 254 -50 435 -154 652 -131 276 -378 541 -648
696 -163 93 -367 164 -550 192 -124 18 -378 18 -498 -1z m588 -58 c144 -34
190 -50 310 -104 454 -206 777 -608 886 -1104 30 -135 37 -397 15 -545 -74
-501 -393 -944 -841 -1167 -108 -54 -282 -118 -360 -132 -34 -6 -38 -5 -30 7
6 8 3 7 -6 -2 -12 -13 -19 -15 -28 -6 -8 8 -11 8 -11 -2 0 -9 -9 -12 -25 -9
-14 3 -25 1 -25 -6 0 -6 -5 -4 -11 4 -8 11 -12 12 -16 2 -2 -6 -9 -10 -14 -6
-5 3 -9 0 -9 -5 0 -7 -58 -11 -172 -11 -140 0 -169 2 -155 13 15 11 14 12 -10
12 -16 1 -31 -4 -35 -10 -5 -6 -8 -5 -8 4 0 9 -8 11 -24 7 -14 -3 -28 -2 -31
4 -3 5 -12 10 -18 10 -7 0 -6 -4 3 -10 9 -6 10 -10 3 -10 -6 0 -18 7 -27 15
-17 17 -30 20 -20 4 9 -16 -39 -5 -166 38 -571 190 -978 682 -1060 1283 -18
126 -7 396 19 522 100 468 413 869 841 1079 126 62 213 92 350 122 161 36 154
35 370 32 169 -2 210 -6 305 -29z"/>
<path d="M2719 3394 c-13 -14 -51 -49 -83 -77 -55 -48 -59 -50 -53 -24 4 15 5
27 3 27 -8 0 -94 -273 -105 -335 -12 -65 -18 -75 -27 -51 -5 14 -9 14 -23 4
-14 -11 -14 -11 -3 3 11 14 7 26 -21 73 -19 31 -37 53 -42 48 -5 -4 -5 -2 -2
4 4 6 1 25 -5 42 -10 27 -8 37 21 92 18 34 31 63 29 65 -2 2 -16 -21 -32 -51
-16 -30 -32 -54 -37 -54 -4 0 -18 27 -30 60 -24 66 -32 76 -22 30 6 -31 -5
-37 -32 -17 -5 4 -59 32 -120 62 -135 66 -101 38 49 -42 92 -49 111 -63 123
-92 8 -20 22 -41 32 -49 9 -7 10 -11 4 -7 -16 8 -16 6 -2 -34 6 -17 14 -31 18
-31 4 0 8 -7 8 -15 0 -8 10 -38 23 -65 13 -27 21 -53 17 -56 -3 -3 -33 3 -66
13 -34 11 -61 18 -61 16 0 -2 30 -18 68 -35 37 -18 70 -36 74 -42 4 -5 10 -32
13 -58 4 -26 10 -48 15 -48 4 0 5 -12 2 -27 -4 -23 -2 -25 14 -19 18 7 18 6 3
-9 -15 -16 -23 -14 -105 30 -141 75 -333 192 -408 248 -99 75 -117 85 -66 38
43 -40 103 -82 233 -164 31 -20 57 -39 57 -42 0 -3 -17 -3 -37 0 -23 3 -12 -3
27 -15 36 -10 72 -19 80 -20 9 0 31 -13 50 -29 l35 -28 -35 -8 c-43 -8 -189
-77 -189 -88 -1 -5 -11 -18 -23 -28 l-23 -20 25 12 c14 7 41 22 60 34 54 34
157 57 202 45 50 -14 94 -67 107 -130 15 -70 14 -184 -3 -272 -17 -89 -29
-122 -62 -169 -23 -34 -28 -36 -94 -42 -39 -3 -76 -9 -83 -14 -6 -4 -16 -9
-22 -10 -134 -36 -139 -38 -112 -41 42 -5 30 -33 -23 -54 -25 -9 -39 -17 -33
-17 29 -2 95 33 103 54 13 33 104 65 183 64 68 0 61 -7 -33 -34 l-45 -13 36
-1 c20 -1 39 2 42 5 4 4 20 8 37 9 33 3 41 -14 10 -22 -11 -3 -20 -8 -20 -12
0 -3 -11 -7 -25 -7 -14 -1 -49 -13 -78 -27 -35 -17 -79 -28 -137 -33 -57 -5
-77 -9 -60 -14 l25 -6 -23 -8 c-13 -4 -21 -10 -19 -13 3 -2 18 2 34 10 81 41
108 25 51 -30 -48 -45 -86 -61 -143 -58 -27 2 -40 1 -27 -2 12 -2 19 -9 16
-15 -4 -6 1 -6 14 1 11 6 27 8 35 5 22 -8 39 -56 32 -93 -4 -21 -2 -30 5 -26
5 3 10 15 10 26 0 10 6 19 13 19 8 0 9 2 1 8 -6 4 -14 16 -18 27 -5 17 0 23
26 33 17 6 29 14 26 18 -4 3 -16 1 -27 -6 -12 -6 -21 -7 -21 -1 0 11 30 25 48
22 6 -1 12 3 12 9 0 5 10 10 23 11 18 0 19 2 5 7 -22 9 -12 26 27 46 26 14 30
13 41 -2 18 -23 17 -32 -3 -32 -9 0 -14 -3 -10 -6 3 -4 18 -4 32 0 21 5 24 11
19 30 -5 23 -3 24 53 28 32 2 71 0 86 -5 26 -9 27 -11 13 -26 -9 -10 -16 -25
-16 -34 0 -13 -9 -17 -35 -17 -21 0 -41 -7 -52 -19 -10 -11 -31 -23 -46 -26
-16 -4 -33 -18 -39 -31 -6 -13 -25 -27 -47 -33 l-36 -10 39 5 c49 7 45 -10
-12 -49 -23 -16 -47 -38 -54 -50 -7 -14 -1 -11 19 11 17 17 40 32 50 32 19 0
67 54 68 75 0 6 7 18 15 27 13 14 18 14 41 2 15 -7 29 -20 32 -29 4 -8 12 -15
19 -15 10 0 10 2 -1 9 -10 7 0 16 39 34 56 27 74 26 103 -6 22 -26 22 -34 -2
-42 -11 -3 -22 -13 -26 -22 -5 -15 -4 -16 12 -1 10 8 39 25 66 36 37 16 47 26
47 44 0 13 -5 29 -12 36 -18 18 -5 23 32 12 76 -22 89 -68 37 -127 -19 -21
-37 -47 -40 -58 -7 -20 -7 -20 8 -1 8 11 15 23 15 27 0 16 29 16 51 1 30 -21
152 -67 125 -46 -11 7 -23 14 -28 14 -4 0 -8 7 -8 16 0 12 -3 14 -12 6 -16
-13 -78 11 -78 29 0 6 5 29 12 50 8 29 8 46 0 63 -9 20 -7 27 14 47 13 12 24
31 24 42 0 13 5 17 16 13 9 -3 24 -6 35 -6 26 0 42 -42 29 -76 -12 -31 2 -54
31 -54 23 0 24 -4 2 -29 -9 -11 -17 -32 -19 -48 -2 -18 0 -23 5 -14 6 8 14 10
22 5 11 -6 12 -5 2 7 -9 12 -8 21 9 47 22 35 44 36 81 4 17 -15 24 -38 8 -28
-4 3 -17 -1 -27 -10 -18 -15 -18 -15 2 -5 34 16 46 0 38 -56 -3 -28 -2 -58 3
-67 6 -10 8 10 8 60 0 73 7 98 19 72 5 -10 7 -10 12 0 7 15 38 16 67 1 21 -10
21 -10 3 5 -11 9 -34 16 -52 16 -17 0 -59 14 -93 32 -89 46 -106 88 -41 102
28 5 31 8 20 21 -7 9 -19 14 -27 11 -8 -3 -11 -1 -8 4 3 6 -5 10 -20 10 -14 0
-47 11 -74 25 -27 13 -51 22 -55 20 -3 -3 -4 -2 -1 1 2 4 -7 16 -21 26 -30 24
-28 51 3 53 12 1 20 -1 18 -5 -9 -14 59 -42 113 -45 48 -4 51 -3 17 3 -22 5
-51 14 -65 22 -14 8 -28 13 -32 12 -5 -1 -8 4 -8 12 0 11 8 12 42 4 44 -9 113
-46 104 -55 -3 -3 1 -18 9 -33 14 -26 68 -60 97 -60 7 0 -6 9 -29 19 -23 11
-46 29 -52 40 -11 20 -9 21 56 20 45 -1 61 -4 48 -10 -11 -4 -15 -8 -8 -8 22
-2 43 11 36 23 -7 13 23 -14 69 -61 28 -30 36 -33 87 -31 l56 2 -50 3 c-40 4
-55 10 -81 38 l-33 33 30 6 c16 3 41 1 55 -5 38 -14 41 -4 4 11 -23 10 -40 10
-66 2 -19 -5 -36 -6 -39 -2 -3 5 5 11 17 14 13 2 -10 2 -50 -1 -41 -3 -78 -1
-85 5 -6 5 -30 15 -52 22 -22 7 -53 21 -69 31 l-30 18 89 -4 c87 -4 88 -3 20
4 -38 5 -91 14 -117 21 -26 7 -62 10 -79 8 -39 -6 -51 12 -74 112 -23 102 -23
233 -1 285 36 84 102 126 214 133 61 4 76 2 93 -14 16 -15 19 -15 14 -2 -5 12
0 18 17 20 13 2 -4 7 -37 11 -33 4 -71 11 -85 15 -51 16 -187 -25 -237 -71
-21 -18 -23 -19 -23 -3 0 9 -4 15 -8 12 -5 -3 -5 17 -2 44 8 59 63 136 152
209 55 45 63 48 92 40 17 -5 38 -9 46 -8 8 0 0 5 -17 10 -18 5 -33 13 -33 17
0 11 128 73 220 107 134 49 234 94 265 119 11 9 -14 1 -55 -18 -41 -18 -133
-55 -205 -81 -71 -26 -147 -56 -167 -66 l-37 -19 35 68 c35 68 115 272 107
272 -2 0 -14 -21 -25 -47 -18 -42 -22 -45 -30 -28 -6 14 -6 11 -2 -11 12 -72
-85 -245 -166 -295 -28 -17 -47 -35 -43 -41 4 -7 1 -8 -6 -4 -7 5 -21 0 -33
-11 -12 -10 -19 -13 -16 -8 3 6 0 39 -8 75 l-13 65 6 -74 5 -74 -52 -48 c-29
-27 -56 -46 -60 -44 -4 3 -16 48 -26 100 -17 89 -17 101 -1 212 30 212 34 221
139 323 51 49 90 89 87 90 -3 0 -16 -12 -30 -26z"/>
<path d="M3662 3980 c-69 -77 -69 -101 -2 -164 71 -66 98 -64 168 16 43 50 50
63 40 76 -11 12 -21 5 -69 -49 l-57 -63 -44 38 c-23 22 -47 42 -52 47 -5 4 14
34 43 67 28 33 51 64 51 70 0 29 -31 13 -78 -38z"/>
<path d="M1172 3944 c-71 -62 -71 -88 3 -168 47 -50 57 -57 70 -46 14 12 13
16 -12 42 l-27 28 49 50 49 50 31 -30 c28 -27 33 -29 44 -16 11 13 4 25 -45
76 -72 75 -90 77 -162 14z"/>
<path d="M4031 3557 c-79 -47 -83 -68 -30 -157 46 -77 56 -87 71 -72 8 8 -1
32 -31 81 -22 38 -41 74 -41 79 0 9 30 26 35 20 1 -2 14 -24 29 -50 32 -55 37
-60 55 -48 11 6 7 20 -19 65 -26 46 -30 59 -19 66 23 14 24 12 70 -65 36 -63
46 -73 61 -65 16 8 13 17 -28 85 -38 62 -72 95 -97 94 -1 0 -26 -15 -56 -33z"/>
<path d="M868 3570 c-9 -6 -30 -34 -47 -63 -44 -78 -37 -95 66 -156 46 -28 88
-51 93 -51 16 0 19 30 3 38 -13 8 -11 17 17 68 43 77 38 101 -30 143 -53 33
-74 37 -102 21z m120 -79 c11 -6 7 -19 -19 -62 -18 -30 -33 -55 -35 -57 -4 -6
-104 60 -104 68 0 5 14 31 31 59 l32 51 41 -26 c22 -13 47 -28 54 -33z"/>
<path d="M643 2717 c-4 -7 -27 -19 -51 -26 -55 -16 -118 -77 -131 -128 -5 -21
-11 -67 -13 -103 -3 -59 -1 -65 16 -63 11 1 28 -10 39 -24 11 -14 39 -34 61
-44 63 -29 118 -24 203 16 70 33 84 47 63 60 -6 4 -6 15 0 31 6 14 10 49 10
78 0 63 -35 124 -90 155 -20 11 -44 29 -55 41 -21 23 -40 26 -52 7z m2 -73 c9
-14 16 -14 34 -5 29 16 54 7 85 -30 35 -42 50 -101 36 -144 -8 -26 -15 -32
-30 -28 -17 4 -20 0 -20 -26 0 -24 -6 -34 -31 -47 -81 -41 -208 3 -194 67 5
22 2 29 -14 34 -38 12 -23 95 27 149 43 45 86 58 107 30z"/>
<path d="M4280 2675 c-7 -8 -18 -15 -25 -15 -6 0 -20 -9 -30 -20 -17 -18 -17
-20 -2 -14 16 6 22 -5 18 -29 -3 -17 22 -49 52 -67 38 -23 53 -26 35 -6 -7 8
-17 12 -21 9 -5 -3 -7 3 -5 13 2 11 10 19 18 19 8 0 24 13 35 30 l21 30 -28
27 c-16 16 -24 28 -18 28 5 0 18 -9 27 -20 20 -23 34 -26 31 -8 -8 36 -84 52
-108 23z"/>
<path d="M805 2078 c4 -18 8 -37 9 -42 0 -5 -44 -21 -99 -36 -56 -15 -100 -32
-99 -38 1 -7 2 -16 3 -21 0 -5 48 3 106 19 l104 28 7 -34 c7 -38 20 -52 36
-36 15 15 -35 186 -56 190 -15 3 -17 -1 -11 -30z"/>
<path d="M4166 2102 c-11 -18 -46 -174 -41 -182 12 -20 24 -9 35 28 l10 39 84
-22 c46 -13 92 -26 103 -29 15 -5 22 -1 26 14 4 17 -2 22 -46 34 -29 8 -74 21
-102 29 -27 7 -49 18 -49 23 1 5 5 24 9 42 5 25 3 32 -9 32 -8 0 -17 -4 -20
-8z"/>
<path d="M4070 1810 c-18 -45 -31 -83 -29 -85 8 -7 222 -95 225 -92 2 1 19 39
38 84 30 70 32 82 19 88 -15 5 -32 -9 -33 -27 0 -3 -9 -27 -19 -52 -19 -44
-20 -45 -50 -33 -36 13 -37 21 -12 80 11 25 17 48 14 51 -9 9 -33 7 -33 -3 0
-5 -9 -29 -20 -55 l-21 -46 -29 15 c-36 18 -36 19 -9 79 19 45 20 76 1 76 -5
0 -23 -36 -42 -80z"/>
<path d="M777 1833 c-79 -34 -107 -51 -105 -62 4 -17 18 -19 55 -7 18 6 25 1
37 -22 14 -27 13 -31 -11 -67 -19 -28 -23 -42 -16 -58 9 -19 11 -18 32 16 25
40 29 42 64 26 54 -24 128 38 111 95 -11 41 -48 126 -53 126 -3 -1 -55 -22
-114 -47z"/>
<path d="M3995 1643 c-3 -10 -3 -19 2 -21 27 -10 145 -92 133 -92 -150 -5
-236 -25 -227 -53 1 -4 47 -34 102 -67 91 -54 101 -58 115 -44 9 10 11 18 5
20 -5 2 -41 24 -80 49 -58 37 -66 45 -45 45 153 6 219 21 220 50 0 5 -204 130
-213 130 -3 0 -8 -8 -12 -17z"/>
<path d="M900 1580 c-52 -33 -99 -61 -105 -63 -11 -4 82 -157 95 -157 22 0 18
23 -15 76 l-34 58 27 18 c15 10 29 18 32 18 3 0 19 -22 35 -50 16 -27 32 -50
37 -50 19 0 16 25 -9 71 -27 49 -28 50 -9 65 32 23 43 17 77 -40 20 -33 38
-52 46 -49 7 3 13 9 13 14 0 11 -84 149 -90 149 -3 -1 -48 -28 -100 -60z"/>
<path d="M1070 1392 c-31 -26 -73 -61 -94 -79 l-39 -32 58 -71 c46 -57 60 -68
72 -59 15 13 18 8 -45 82 l-32 38 27 24 28 23 42 -46 c29 -34 44 -44 52 -36 8
7 1 24 -26 58 l-37 48 23 19 c13 11 27 19 31 19 4 0 25 -22 46 -50 29 -39 41
-47 51 -38 15 12 16 11 -52 97 -22 27 -42 50 -45 50 -3 0 -30 -21 -60 -47z"/>
<path d="M3792 1348 c-7 -7 -12 -15 -12 -19 0 -4 26 -60 57 -124 48 -98 59
-114 70 -102 11 11 12 19 2 39 -13 29 -9 39 38 92 29 32 35 35 59 25 21 -8 31
-6 43 5 8 9 13 17 10 20 -5 4 -238 76 -248 76 -4 0 -12 -5 -19 -12z"/>
<path d="M1252 1228 c-35 -17 -38 -52 -9 -116 23 -49 24 -59 12 -71 -23 -23
-64 2 -82 49 -17 42 -30 50 -39 25 -17 -42 55 -125 107 -125 34 0 69 31 69 60
0 12 -11 43 -25 70 -22 44 -23 50 -9 64 20 21 48 7 69 -34 17 -33 45 -40 45
-11 0 25 -35 68 -70 86 -33 17 -37 17 -68 3z"/>
<path d="M3490 1067 c-60 -31 -109 -70 -103 -81 3 -6 35 -53 71 -104 57 -83
66 -92 80 -79 13 14 12 19 -6 45 l-21 29 44 31 c25 18 47 42 51 57 9 35 -13
83 -47 100 -34 18 -38 18 -69 2z"/>
<path d="M1516 1004 c-25 -24 -19 -67 14 -110 35 -43 36 -77 3 -82 -22 -3 -56
24 -79 64 -10 15 -14 17 -25 6 -30 -29 54 -112 112 -112 35 0 69 31 69 63 0
13 -16 45 -36 70 -21 27 -34 53 -30 62 9 24 45 17 77 -15 17 -17 36 -27 44
-23 23 8 19 17 -25 57 -44 40 -96 48 -124 20z"/>
<path d="M3153 886 c-39 -17 -75 -34 -78 -37 -5 -6 71 -205 85 -222 6 -7 147
46 162 61 4 4 4 13 -1 20 -6 10 -20 8 -66 -12 -31 -14 -61 -26 -65 -26 -6 0
-30 52 -30 65 0 1 21 10 48 20 58 22 70 31 55 46 -8 8 -24 5 -58 -10 -26 -12
-51 -21 -55 -21 -8 0 -33 61 -28 65 2 1 29 12 61 25 51 21 70 42 50 53 -5 2
-40 -10 -80 -27z"/>
<path d="M1715 806 c-83 -78 -97 -95 -82 -101 12 -5 26 0 42 15 l23 22 59 -29
c49 -24 59 -33 61 -58 4 -28 16 -44 34 -45 4 0 5 62 1 138 -5 124 -11 151 -33
152 -3 0 -50 -42 -105 -94z"/>
<path d="M1960 826 c0 -6 7 -66 16 -131 22 -169 31 -172 130 -37 89 122 88
119 65 125 -16 4 -33 -14 -83 -86 l-63 -90 -7 59 c-4 32 -10 82 -13 110 -5 40
-11 53 -26 57 -11 3 -19 0 -19 -7z"/>
<path d="M2977 822 c-12 -2 -16 -9 -13 -19 3 -8 9 -32 12 -53 6 -38 6 -39 -32
-49 -98 -25 -89 -28 -103 32 -10 48 -15 54 -32 50 -15 -4 -19 -11 -15 -27 3
-11 16 -65 28 -118 20 -86 26 -98 44 -98 20 0 21 3 13 38 -15 64 -13 69 35 81
75 19 82 16 92 -31 7 -35 14 -44 33 -46 17 -3 22 0 19 10 -3 7 -15 58 -28 113
-26 116 -29 122 -53 117z"/>
<path d="M2222 671 c-18 -158 -22 -147 49 -155 93 -9 119 -8 119 8 0 13 -48
26 -102 26 -33 0 -40 10 -32 47 6 29 6 29 65 25 49 -4 59 -2 59 11 0 12 -15
18 -61 23 -55 6 -60 9 -55 28 3 11 6 27 6 35 0 11 14 13 70 7 66 -6 70 -5 70
14 0 15 -7 20 -29 20 -15 0 -55 3 -88 6 l-60 7 -11 -102z"/>
<path d="M2640 763 c-68 -5 -90 -12 -90 -28 0 -9 14 -15 43 -17 l42 -3 9 -102
c7 -94 10 -103 28 -103 19 0 20 4 13 109 l-7 110 33 3 c23 2 35 9 37 21 4 18
0 18 -108 10z"/>
</g>
</svg>
